<svg width="24" height="24" viewBox="0 0 24 24" fill="none" xmlns="http://www.w3.org/2000/svg">
<path fill-rule="evenodd" clip-rule="evenodd" d="M20.8804 0H3.40087C2.07491 0 1 1.09482 1 2.44536V20.5546C1 21.9052 2.07491 23 3.40087 23H20.8804C22.2063 23 23.2812 21.9052 23.2812 20.5546V2.44536C23.2812 1.09482 22.2063 0 20.8804 0ZM12.4942 20C12.0995 19.9989 11.7212 19.8419 11.4414 19.5631C11.1616 19.2844 11.003 18.9063 11 18.5111C10.9959 17.6856 11.6832 16.9964 12.5091 17C12.9065 17.0019 13.2867 17.1618 13.5663 17.4445C13.8459 17.7271 14.0019 18.1094 14 18.5072C13.9981 18.905 13.8384 19.2858 13.5561 19.5658C13.2738 19.8457 12.892 20.0019 12.4947 20H12.4942ZM12.5341 18.004C12.2685 17.9841 12.0189 18.2065 12.0027 18.4778C11.9981 18.6052 12.0423 18.7296 12.1262 18.8255C12.2102 18.9214 12.3275 18.9816 12.4543 18.9937C12.7402 19.0195 12.9723 18.8232 12.9917 18.5423C12.9971 18.4768 12.9896 18.4109 12.9695 18.3484C12.9495 18.2858 12.9172 18.2279 12.8747 18.1778C12.8322 18.1278 12.7802 18.0867 12.7218 18.0569C12.6633 18.027 12.5995 18.009 12.5341 18.004ZM16.4414 19.5631C16.7212 19.8419 17.0995 19.9989 17.4942 20H17.4947C17.892 20.0019 18.2738 19.8457 18.5561 19.5658C18.8384 19.2858 18.9981 18.905 19 18.5072C19.0019 18.1094 18.8459 17.7271 18.5663 17.4445C18.2867 17.1618 17.9065 17.0019 17.5091 17C16.6832 16.9964 15.9959 17.6856 16 18.5111C16.003 18.9063 16.1616 19.2844 16.4414 19.5631ZM17.0027 18.4778C17.0189 18.2065 17.2685 17.9841 17.5341 18.004C17.5995 18.009 17.6633 18.027 17.7218 18.0569C17.7802 18.0867 17.8322 18.1278 17.8747 18.1778C17.9172 18.2279 17.9495 18.2858 17.9695 18.3484C17.9896 18.4109 17.9971 18.4768 17.9917 18.5423C17.9723 18.8232 17.7402 19.0195 17.4543 18.9937C17.3275 18.9816 17.2102 18.9214 17.1262 18.8255C17.0423 18.7296 16.9981 18.6052 17.0027 18.4778ZM7.4942 20C7.0995 19.9989 6.72116 19.8419 6.44139 19.5631C6.16162 19.2844 6.003 18.9063 6.00002 18.5111C5.9959 17.6856 6.68322 16.9964 7.50915 17C7.90645 17.0019 8.28673 17.1618 8.56632 17.4445C8.8459 17.7271 9.0019 18.1094 8.99998 18.5072C8.99807 18.905 8.83841 19.2858 8.55611 19.5658C8.27382 19.8457 7.89202 20.0019 7.49472 20H7.4942ZM7.53413 18.004C7.26853 17.9841 7.0189 18.2065 7.00267 18.4778C6.99809 18.6052 7.04228 18.7296 7.12622 18.8255C7.21016 18.9214 7.32751 18.9816 7.45428 18.9937C7.74023 19.0195 7.97234 18.8232 7.99166 18.5423C7.99712 18.4768 7.9896 18.4109 7.96953 18.3484C7.94946 18.2858 7.91724 18.2279 7.87472 18.1778C7.8322 18.1278 7.78022 18.0867 7.72177 18.0569C7.66332 18.027 7.59955 18.009 7.53413 18.004ZM19.6863 15.0619V10.0647C19.6876 8.39902 19.6878 6.73337 19.6871 5.06773C19.6859 4.10217 19.0963 3.59375 17.9729 3.59375H6.3512C5.19913 3.59408 4.59589 4.09851 4.59589 5.07638C4.59304 8.39436 4.59304 11.7128 4.59589 15.0316C4.59667 16.0182 5.19291 16.5299 6.33565 16.5299C10.2098 16.5317 14.0837 16.5317 17.9574 16.5299C19.0757 16.5296 19.6863 16.0118 19.6863 15.0619ZM18.1424 4.90791V13.3892C17.9727 13.1234 17.8082 12.8644 17.6468 12.6104C17.2575 11.9975 16.8866 11.4136 16.506 10.8341C16.1142 10.2355 15.4065 9.95013 14.7231 10.1982C14.3601 10.33 14.0142 10.6064 13.7938 10.893C13.4772 11.3053 13.2064 11.7438 12.9359 12.1819C12.8277 12.357 12.7196 12.532 12.6087 12.7053C12.605 12.711 12.5987 12.7153 12.5863 12.7238C12.5764 12.7305 12.5627 12.7398 12.5434 12.7546C12.5191 12.7196 12.4947 12.6853 12.4706 12.6514C12.4211 12.5818 12.3727 12.5138 12.328 12.4439C12.185 12.2203 12.0416 11.9967 11.8983 11.7732C11.4327 11.047 10.9672 10.3208 10.5098 9.59087C10.2124 9.11575 9.76854 8.83374 9.1412 8.82875C8.49325 8.82342 8.03888 9.11209 7.73609 9.6012C7.40605 10.1345 7.06658 10.6631 6.72706 11.1919C6.61994 11.3587 6.51282 11.5255 6.406 11.6925C6.36239 11.7615 6.31388 11.8284 6.24895 11.918C6.21549 11.9642 6.17767 12.0164 6.13392 12.078V4.90791H18.1424ZM12.3673 15.2098H6.07057C6.08868 15.1438 6.10117 15.0806 6.11299 15.0208C6.13618 14.9035 6.15683 14.799 6.21243 14.711C7.15124 13.228 8.09291 11.7463 9.03742 10.2658C9.07174 10.2269 9.10997 10.1907 9.15169 10.1576L12.3673 15.2098ZM16.4353 13.4171C16.817 14.0168 17.2004 14.619 17.5944 15.2377H17.5955C17.3495 15.2377 17.1076 15.2379 16.869 15.2381C15.9805 15.2389 15.1369 15.2396 14.2925 15.2294C14.1914 15.2281 14.0589 15.1378 13.9971 15.0569C13.3664 14.2336 13.3685 14.2302 13.9201 13.3644L13.9236 13.3589C14.177 12.9613 14.43 12.5637 14.6935 12.1495C14.845 11.9113 15.0001 11.6675 15.1608 11.4151C15.5918 12.0919 16.0125 12.7529 16.4353 13.4171Z" fill="#9A9AA9"/>
</svg>
