<svg width="24" height="24" viewBox="0 0 19 20" fill="none" xmlns="http://www.w3.org/2000/svg">
<rect width="18" height="20" rx="4" fill="#9A9AA9"/>
<path fill-rule="evenodd" clip-rule="evenodd" d="M2 4.54545L2.63636 4H7.72727L8.36364 4.54545V8.90909L7.72727 9.45455H2.63636L2 8.90909V4.54545ZM3.27273 5.09091V8.36364H7.09091V5.09091H3.27273ZM10.2727 4L9.63636 4.54545V8.90909L10.2727 9.45455H15.3636L16 8.90909V4.54545L15.3636 4H10.2727ZM10.9091 8.36364V5.09091H14.7273V8.36364H10.9091ZM13.4545 16H12.1818V13.8182H9.63636V12.7273H12.1818V10.5455H13.4545V12.7273H16V13.8182H13.4545V16ZM2.63636 10.5455L2 11.0909V15.4545L2.63636 16H7.72727L8.36364 15.4545V11.0909L7.72727 10.5455H2.63636ZM3.27273 14.9091V11.6364H7.09091V14.9091H3.27273Z" fill="white"/>
</svg>
