<svg width="24" height="24" viewBox="0 0 24 24" fill="none" xmlns="http://www.w3.org/2000/svg">
<g opacity="0.4">
<path fill-rule="evenodd" clip-rule="evenodd" d="M7.81 2H16.191C19.28 2 21 3.78 21 6.83V17.16C21 20.26 19.28 22 16.191 22H7.81C4.77 22 3 20.26 3 17.16V6.83C3 3.78 4.77 2 7.81 2ZM8.08469 6.66039V6.65039H11.0737C11.5047 6.65039 11.8547 7.00039 11.8547 7.42939C11.8547 7.87039 11.5047 8.22039 11.0737 8.22039H8.08469C7.65369 8.22039 7.30469 7.87039 7.30469 7.44039C7.30469 7.01039 7.65369 6.66039 8.08469 6.66039ZM8.08469 12.7407H15.9247C16.3547 12.7407 16.7047 12.3907 16.7047 11.9607C16.7047 11.5307 16.3547 11.1797 15.9247 11.1797H8.08469C7.65369 11.1797 7.30469 11.5307 7.30469 11.9607C7.30469 12.3907 7.65369 12.7407 8.08469 12.7407ZM8.08094 17.3104H15.9209C16.3199 17.2704 16.6209 16.9294 16.6209 16.5304C16.6209 16.1204 16.3199 15.7804 15.9209 15.7404H8.08094C7.78094 15.7104 7.49094 15.8504 7.33094 16.1104C7.17094 16.3604 7.17094 16.6904 7.33094 16.9504C7.49094 17.2004 7.78094 17.3504 8.08094 17.3104Z" fill="#030229"/>
</g>
</svg>
