<svg width="24" height="24" viewBox="0 0 18 18" fill="none" xmlns="http://www.w3.org/2000/svg">
<g opacity="0.4">
<path fill-rule="evenodd" clip-rule="evenodd" d="M6.57946 8.35866C6.21487 8.35866 5.9266 8.64199 5.9266 9.00033C5.9266 9.35033 6.21487 9.64199 6.57946 9.64199H11.6641V8.3588H15.1141L13.7807 7.0338C13.5307 6.7838 13.5307 6.37547 13.7807 6.12547C14.0307 5.86714 14.4391 5.86714 14.6891 6.11714L17.1224 8.54213C17.2474 8.66714 17.3141 8.82547 17.3141 9.00047C17.3141 9.16713 17.2474 9.3338 17.1224 9.45047L14.6891 11.8755C14.5641 12.0005 14.3974 12.0671 14.2391 12.0671C14.0724 12.0671 13.9057 12.0005 13.7807 11.8755C13.5307 11.6255 13.5307 11.2171 13.7807 10.9671L15.1141 9.64213H11.6667V13.6253C11.6667 15.667 9.97941 17.3337 7.89365 17.3337H3.76453C1.68726 17.3337 0 15.6753 0 13.6337V4.37533C0 2.32533 1.69574 0.666992 3.77301 0.666992H7.91061C9.97941 0.666992 11.6667 2.32533 11.6667 4.36699V8.35866H6.57946Z" fill="#030229"/>
</g>
</svg>
