<svg width="24" height="24" viewBox="0 0 24 24" fill="none" xmlns="http://www.w3.org/2000/svg">
<g clip-path="url(#clip0_2675_26578)">
<path d="M10.538 1H13.4599C13.7235 1.12858 13.8763 1.34694 13.9898 1.61114C14.123 1.91966 14.2721 2.22133 14.4309 2.51711C14.4752 2.59966 14.5679 2.68507 14.6556 2.71074C15.4354 2.93899 16.1773 3.24847 16.8763 3.66312C16.9849 3.7276 17.0713 3.73921 17.1888 3.67453C17.4578 3.52617 17.7361 3.39436 18.0124 3.26007C18.3685 3.08717 18.6122 3.12255 18.8893 3.39702C19.4638 3.96651 20.0357 4.53859 20.6052 5.11328C20.8734 5.38414 20.9115 5.62856 20.746 5.97169C20.6064 6.26138 20.4521 6.54441 20.3197 6.83734C20.2883 6.90657 20.2878 7.02127 20.3247 7.08461C20.7759 7.86539 21.1239 8.70143 21.36 9.57179C21.3809 9.64901 21.4676 9.7367 21.5443 9.76561C21.8382 9.87631 22.1404 9.96476 22.4394 10.0621C22.8476 10.1953 22.9973 10.395 22.9981 10.818C22.9999 11.6055 22.9999 12.393 22.9981 13.1804C22.9981 13.6031 22.8476 13.8028 22.4389 13.936C22.1401 14.0333 21.8378 14.1216 21.5449 14.2325C21.4688 14.2612 21.3824 14.3493 21.3609 14.4267C21.1439 15.2129 20.8368 15.9714 20.4456 16.6871C20.4019 16.7676 20.3971 16.8939 20.424 16.9841C20.5335 17.3538 20.656 17.7202 20.7854 18.0835C20.8995 18.4038 20.8306 18.6672 20.5913 18.9037C20.026 19.4616 19.4642 20.0235 18.9059 20.5893C18.6694 20.829 18.4064 20.8991 18.0862 20.7854C17.7227 20.6562 17.3566 20.533 16.9868 20.424C16.8965 20.3972 16.77 20.4006 16.6897 20.4443C15.9738 20.8351 15.2155 21.1426 14.4296 21.3606C14.348 21.3832 14.2584 21.48 14.2272 21.5628C14.1144 21.8635 14.0275 22.1739 13.9257 22.4788C13.8051 22.8402 13.5894 22.9971 13.2046 22.9985C12.4028 23.001 11.601 23.001 10.7992 22.9985C10.4035 22.9973 10.1934 22.841 10.0688 22.4627C9.96815 22.1574 9.87856 21.8479 9.76671 21.5468C9.73818 21.4707 9.65125 21.3828 9.57403 21.3615C8.7808 21.1429 8.01588 20.8322 7.2949 20.4358C7.22528 20.3977 7.11515 20.3924 7.03716 20.4168C6.66105 20.5309 6.28779 20.6537 5.91738 20.7852C5.59725 20.8993 5.33343 20.8331 5.0968 20.5937C4.53758 20.0282 3.97512 19.4662 3.40942 18.9075C3.1631 18.6644 3.09786 18.396 3.21921 18.0683C3.34951 17.7128 3.46649 17.3521 3.57415 16.9892C3.60097 16.8985 3.59869 16.7722 3.55513 16.6919C3.1991 16.0387 2.9143 15.3492 2.70564 14.6352C2.68376 14.5591 2.60806 14.4792 2.53616 14.4413C2.23182 14.2816 1.92577 14.1264 1.61115 13.9905C1.34714 13.8764 1.12858 13.7242 1 13.4604V10.5386C1.12839 10.2752 1.34676 10.1223 1.61096 10.0087C1.9193 9.87555 2.22098 9.72662 2.51676 9.56798C2.59931 9.52366 2.68509 9.43103 2.71077 9.34354C2.94055 8.5574 3.25535 7.80874 3.67268 7.10439C3.73583 6.99787 3.72974 6.91665 3.67401 6.81147C3.52945 6.54042 3.39516 6.26386 3.26068 5.98748C3.08739 5.63065 3.12201 5.38718 3.39592 5.11062C3.96516 4.53618 4.53707 3.96429 5.11164 3.39493C5.38516 3.12388 5.62407 3.08527 5.96759 3.25094C6.25748 3.39036 6.54033 3.54443 6.83306 3.6772C6.90268 3.70877 7.01719 3.71239 7.08034 3.67606C7.79939 3.26206 8.56579 2.93635 9.36289 2.70599C9.43898 2.6843 9.51849 2.60784 9.55653 2.53594C9.71612 2.23161 9.87133 1.92575 10.0071 1.61114C10.122 1.34618 10.2746 1.12839 10.538 1ZM19.0879 12.0059C19.0968 8.11421 15.8982 4.91223 12 4.91109C8.11015 4.90956 4.93341 8.07807 4.91001 11.9827C4.88681 15.867 8.07915 19.0722 11.988 19.0883C15.8754 19.1043 19.079 15.909 19.0879 12.0059Z" fill="#9A9AA9"/>
<path d="M15.2261 10.7163C15.2227 12.4901 13.766 13.9393 11.9925 13.9328C10.2189 13.9263 8.7716 12.4672 8.7813 10.6949C8.791 8.92933 10.2385 7.48907 12.0033 7.48926C13.7767 7.48926 15.2287 8.9436 15.2261 10.7163Z" fill="#9A9AA9"/>
<path d="M8.86764 13.9634C10.5885 15.608 13.3464 15.6599 15.1325 13.9609C15.5626 14.3699 15.862 14.8644 16.1267 15.3913C16.296 15.7282 16.2507 15.9479 15.962 16.2067C14.5213 17.4977 12.8615 18.0288 10.9505 17.6934C9.70591 17.4749 8.66088 16.8687 7.79617 15.9509C7.75661 15.9091 7.72446 15.8261 7.73721 15.774C7.87302 15.2154 8.39287 14.3876 8.86764 13.9634Z" fill="#9A9AA9"/>
</g>
<defs>
<clipPath id="clip0_2675_26578">
<rect width="22" height="22" fill="white" transform="translate(1 1)"/>
</clipPath>
</defs>
</svg>
