<svg width="24" height="24" viewBox="0 0 23 23" fill="none" xmlns="http://www.w3.org/2000/svg">
<g clip-path="url(#clip0_2723_26620)">
<path d="M19.5817 12.9163C21.0421 12.9163 22.2263 11.7329 22.2263 10.2725C22.2263 8.81212 21.0421 7.62793 19.5817 7.62793C18.1217 7.62793 16.9375 8.81212 16.9375 10.2725C16.9375 11.7329 18.1217 12.9163 19.5817 12.9163Z" fill="#9A9AA9"/>
<path d="M22.9692 15.4646C22.8513 14.7565 22.266 13.7655 21.823 13.3228C21.7647 13.2642 21.5038 13.2506 21.4334 13.2943C20.8948 13.6255 20.2621 13.8205 19.5831 13.8205C18.9048 13.8205 18.2721 13.6255 17.7334 13.2943C17.6627 13.2506 17.4022 13.2642 17.3439 13.3228C17.22 13.4467 17.0849 13.6115 16.9531 13.8027C17.3096 14.4739 17.5923 15.1868 17.6943 15.8007C17.7963 16.4161 17.7632 16.9987 17.5982 17.5299C18.1839 17.7418 18.8863 17.8348 19.583 17.8348C21.4003 17.8348 23.2601 17.2047 22.9692 15.4646Z" fill="#9A9AA9"/>
<path d="M11.433 11.801C13.7998 11.801 15.7187 9.88214 15.7187 7.51539C15.7187 5.14935 13.7998 3.23047 11.433 3.23047C9.0666 3.23047 7.14844 5.14935 7.14844 7.51539C7.14844 9.88214 9.06656 11.801 11.433 11.801Z" fill="#9A9AA9"/>
<path d="M15.0632 12.4578C14.9702 12.3652 14.5479 12.3415 14.4331 12.4126C13.5595 12.9501 12.5342 13.2648 11.4344 13.2648C10.3353 13.2648 9.30955 12.9501 8.43635 12.4126C8.32158 12.3415 7.89927 12.3652 7.80628 12.4578C7.08659 13.1767 6.13806 14.7839 5.94723 15.9297C5.47672 18.7519 8.49134 19.7709 11.4344 19.7709C14.3782 19.7709 17.3927 18.7519 16.9222 15.9297C16.7314 14.7839 15.7829 13.1767 15.0632 12.4578Z" fill="#9A9AA9"/>
<path d="M3.41803 12.9163C4.87808 12.9163 6.06222 11.7329 6.06222 10.2725C6.06222 8.81212 4.87808 7.62793 3.41803 7.62793C1.95758 7.62793 0.773438 8.81212 0.773438 10.2725C0.773437 11.7329 1.95758 12.9163 3.41803 12.9163Z" fill="#9A9AA9"/>
<path d="M5.17026 15.8007C5.2787 15.1559 5.58466 14.3967 5.96825 13.6947C5.86134 13.5487 5.75447 13.4215 5.65582 13.3228C5.59747 13.2642 5.33701 13.2506 5.26626 13.2943C4.7276 13.6255 4.09488 13.8205 3.41629 13.8205C2.73761 13.8205 2.10448 13.6255 1.56627 13.2943C1.49583 13.2506 1.23465 13.2642 1.1763 13.3228C0.732158 13.7655 0.148398 14.7565 0.030164 15.4646C-0.260391 17.2047 1.59902 17.8347 3.41629 17.8347C4.06482 17.8347 4.71974 17.7549 5.2787 17.5724C5.10256 17.0304 5.06528 16.4342 5.17026 15.8007Z" fill="#9A9AA9"/>
</g>
<defs>
<clipPath id="clip0_2723_26620">
<rect width="23" height="23" fill="white"/>
</clipPath>
</defs>
</svg>
